<svg width="2560" height="1710" viewBox="0 0 2560 1710" fill="none" xmlns="http://www.w3.org/2000/svg">
<rect x="-25.5123" width="2560" height="1468" fill="url(#paint0_linear_102_223)"/>
<mask id="mask0_102_223" style="mask-type:luminance" maskUnits="userSpaceOnUse" x="-26" y="0" width="2561" height="1468">
<rect x="-25.5123" width="2560" height="1468" fill="white"/>
</mask>
<g mask="url(#mask0_102_223)">
<path fill-rule="evenodd" clip-rule="evenodd" d="M-25.5123 0L779.883 0C779.883 0 668.488 0 808.488 230.824C890.062 365.32 1019.49 513.536 1019.49 652.025C1019.49 806.308 926.365 902.632 878.988 1091.56C833.356 1273.53 986.137 1468 986.137 1468H-25.5123V0Z" fill="#524AC3" fill-opacity="0.15"/>
<path fill-rule="evenodd" clip-rule="evenodd" d="M3101.53 1592.13L2134.42 1484.92C2134.42 1484.92 2538.73 877.933 2371.77 638.229C2274.92 499.192 2155.09 403.613 2152.21 238.914C2149.01 55.4312 2295.15 -30.7508 2339.09 -256.273C2381.41 -473.483 2226.69 -724.954 2226.69 -724.954L3248.72 -742.794L3101.53 1592.13Z" fill="#524AC3" fill-opacity="0.15"/>
</g>
<path fill-rule="evenodd" clip-rule="evenodd" d="M-28.5123 1223.99C-28.5123 1223.99 188.977 1441.99 507.488 1441.99C825.999 1441.99 923.728 1197.44 1281.04 1223.8C1638.36 1250.16 1825.85 1385.49 2134.69 1405.8C2735.35 1445.3 3158.49 1313.3 3158.49 1313.3L2996.99 1560.5L-122.512 1495L-28.5123 1223.99Z" fill="white" fill-opacity="0.21"/>
<path fill-rule="evenodd" clip-rule="evenodd" d="M3148.72 1127.54C3148.72 1127.54 2960.56 1370.83 2642.49 1387.5C2324.41 1404.17 2314.89 1261.32 1959.44 1306.35C1604 1351.37 1606.25 1429.69 1298.9 1466.13C1162.98 1482.25 900.457 1095.48 387.329 1316.64C-125.8 1537.8 -974 973.413 -974 973.413L-252.012 1468L3148.49 1495L3148.72 1127.54Z" fill="white" fill-opacity="0.2"/>
<path fill-rule="evenodd" clip-rule="evenodd" d="M-28.5123 1301.3C-28.5123 1301.3 36.2143 1446.8 316.988 1446.8C597.761 1446.8 672.506 1238.44 987.488 1264.8C1302.47 1291.16 1467.75 1426.49 1739.99 1446.8C2269.49 1486.3 2642.49 1354.3 2642.49 1354.3L2613.99 1495L-57.5123 1468L-28.5123 1301.3Z" fill="white"/>
<defs>
<linearGradient id="paint0_linear_102_223" x1="2848.5" y1="732.697" x2="1993.8" y2="-766.366" gradientUnits="userSpaceOnUse">
<stop stop-color="#8789FF"/>
<stop offset="1" stop-color="#696CFF"/>
</linearGradient>
</defs>
</svg>
